<svg width="253" height="78" viewBox="0 0 253 78" fill="none" xmlns="http://www.w3.org/2000/svg">
<path d="M178.079 74.2258C170.005 68.8762 158.083 59.6282 149.619 48.966C146.562 45.1167 143.953 41.0707 142.123 36.9878C140.294 32.8926 139.231 28.7483 139.231 24.6654C139.231 18.5164 141.639 12.9578 145.523 8.9364C149.395 4.93959 154.718 2.45542 160.597 2.45542C164.433 2.45542 168.033 3.51304 171.15 5.35772C173.9 6.98104 176.249 9.23155 178.055 11.9002V8.01406C176.391 6.13248 174.467 4.49687 172.318 3.21789C168.872 1.16415 164.87 -0.00415039 160.609 -0.00415039C154.081 -0.00415039 148.155 2.75057 143.87 7.1901C139.562 11.6542 136.882 17.8401 136.882 24.6654C136.882 29.191 138.051 33.6797 139.987 38.0208C141.934 42.362 144.649 46.5556 147.801 50.5278C156.867 61.9402 169.533 71.5694 177.76 76.919C177.866 76.9805 177.973 77.0174 178.079 77.0666V74.2135V74.2258Z" fill="#ED1C24"/>
<path d="M181.301 74.2258C189.375 68.8762 201.297 59.6282 209.761 48.966C212.818 45.1167 215.427 41.0707 217.257 36.9878C219.086 32.8926 220.149 28.7483 220.149 24.6654C220.149 18.5164 217.741 12.9578 213.857 8.9364C209.985 4.93959 204.662 2.45542 198.783 2.45542C194.947 2.45542 191.347 3.51304 188.23 5.35772C185.48 6.98104 183.131 9.23155 181.325 11.9002V8.01406C182.989 6.13248 184.913 4.49687 187.062 3.21789C190.509 1.16415 194.51 -0.00415039 198.771 -0.00415039C205.299 -0.00415039 211.225 2.75057 215.51 7.1901C219.818 11.6542 222.498 17.8401 222.498 24.6654C222.498 29.191 221.329 33.6797 219.393 38.0208C217.446 42.362 214.731 46.5556 211.579 50.5278C202.513 61.9402 189.847 71.5694 181.62 76.919C181.514 76.9805 181.408 77.0174 181.301 77.0666V74.2135V74.2258Z" fill="#1C7745"/>
<path d="M0 16.057H4.22588C7.05888 16.057 9.08919 16.5243 10.2932 17.4712C11.6271 18.5288 12.2881 20.3612 12.2881 22.9438C12.2881 25.5263 11.7097 27.2972 10.5411 28.6008C9.37249 29.8921 7.60187 30.5439 5.20563 30.5439H2.06573V42.5466H0V16.057ZM2.06573 18.0738V28.5639H3.84815C6.22078 28.5639 7.87336 28.1704 8.8177 27.3956C9.76203 26.6208 10.2342 25.2066 10.2342 23.1528C10.2342 21.6279 9.9745 20.4842 9.44332 19.7217C8.66424 18.6149 7.21233 18.0615 5.08759 18.0615H2.06573V18.0738ZM14.4483 23.0176H16.1953V25.3173H16.3251C16.7265 24.3949 17.2104 23.7308 17.7888 23.3004C18.4617 22.8085 19.3706 22.5625 20.492 22.5625V24.6778C19.0755 24.6778 18.0249 25.1205 17.3521 26.0182C16.6793 26.916 16.3369 28.1704 16.3369 29.7937V42.5466H14.4601V23.0176H14.4483ZM27.0551 22.5625C30.679 22.5625 32.485 25.9691 32.485 32.7698C32.485 36.6313 31.9538 39.3737 30.8914 40.997C30.0061 42.3621 28.6841 43.0508 26.9253 43.0508C24.9304 43.0508 23.5257 42.2268 22.6994 40.5666C21.8731 38.9064 21.4599 36.164 21.4599 32.3516C21.4599 29.7814 21.7078 27.7891 22.1918 26.3872C23.0653 23.8415 24.6825 22.5748 27.0551 22.5748V22.5625ZM26.7954 24.3334C25.3317 24.3334 24.3401 25.3419 23.809 27.371C23.4666 28.6377 23.3014 30.5439 23.3014 33.0895C23.3014 35.4015 23.4548 37.0986 23.7499 38.2054C24.2811 40.2346 25.3435 41.243 26.9253 41.243C28.507 41.243 29.4986 40.2838 30.0652 38.3776C30.4429 37.1109 30.6318 35.2293 30.6318 32.7575C30.6318 29.3633 30.2776 27.0759 29.5812 25.8707C28.991 24.8377 28.0585 24.3211 26.7836 24.3211L26.7954 24.3334ZM36.3922 42.5589V24.8254H34.5507V23.0299H36.3922V20.9146C36.3922 19.0085 36.6165 17.7172 37.0768 17.0531C37.5372 16.3767 38.4107 16.0447 39.6973 16.0447H40.4882V17.8402C39.4613 17.8402 38.8474 17.9754 38.6114 18.246C38.3871 18.5288 38.269 19.2667 38.269 20.4719V23.0299H40.4882V24.8254H38.269V42.5589H36.3922ZM42.1762 32.9173C42.1762 29.2403 42.5894 26.5962 43.4038 24.9852C44.2183 23.3742 45.4814 22.5625 47.2048 22.5625C48.9282 22.5625 50.1794 23.3373 51.0529 24.8991C51.8556 26.338 52.257 28.2688 52.257 30.6914V32.7083H44.0649L44.0059 34.1594C44.0059 36.2501 44.2183 37.8857 44.6433 39.0294C45.1981 40.5174 46.0952 41.2553 47.3464 41.2553C48.4442 41.2553 49.2469 40.7388 49.7309 39.7058C50.0496 39.0048 50.2975 37.8365 50.4627 36.2132H52.2688C52.2688 38.5498 51.7612 40.3084 50.7696 41.5136C49.8961 42.5466 48.7629 43.0631 47.3818 43.0631C45.2335 43.0631 43.7462 41.8702 42.9435 39.4967C42.4477 38.0579 42.2116 36.1148 42.2116 33.6675V32.9296L42.1762 32.9173ZM50.4391 30.9005C50.4391 28.404 50.085 26.6208 49.3767 25.5632C48.8456 24.7393 48.1019 24.3211 47.1694 24.3211C45.0564 24.3211 43.9941 26.5102 43.9941 30.8882H50.4391V30.9005ZM64.0965 28.0105H62.2905C62.2905 26.7192 61.9482 25.7477 61.2753 25.1082C60.7205 24.5917 60.0595 24.3334 59.2804 24.3334C58.5014 24.3334 57.9111 24.5548 57.4744 25.0098C56.9432 25.5509 56.6835 26.3626 56.6835 27.4448C56.6835 28.4532 57.0022 29.228 57.6396 29.7445C57.7223 29.8183 58.5368 30.2733 60.0831 31.1219C61.476 31.872 62.5029 32.6468 63.164 33.4585C64.0965 34.5899 64.5569 35.9918 64.5569 37.6643C64.5569 39.5213 64.0611 40.911 63.0695 41.8333C62.1842 42.6573 61.0156 43.0754 59.5755 43.0754C57.9229 43.0754 56.6481 42.5835 55.7628 41.5873C54.8775 40.6035 54.4289 39.1647 54.4289 37.2831H56.3648C56.3648 38.6236 56.6599 39.632 57.2501 40.2838C57.8403 40.9479 58.6548 41.2676 59.6936 41.2676C60.5671 41.2676 61.2871 40.9479 61.8655 40.2961C62.4439 39.6443 62.739 38.7465 62.739 37.5905C62.739 36.3485 62.2787 35.3154 61.3698 34.5161C60.9684 34.1594 60.0831 33.606 58.702 32.8559C57.2147 31.9581 56.3294 31.3555 56.0343 31.0481C55.208 30.1749 54.7948 28.9574 54.7948 27.371C54.7948 25.6739 55.267 24.4195 56.2231 23.5956C57.0258 22.9069 58.0882 22.5748 59.3985 22.5748C60.7087 22.5748 61.7475 22.9684 62.5738 23.7431C63.5889 24.6901 64.0965 26.1043 64.0965 28.0228V28.0105ZM76.4554 28.0105H74.6494C74.6494 26.7192 74.3071 25.7477 73.6343 25.1082C73.0795 24.5917 72.4184 24.3334 71.6394 24.3334C70.8603 24.3334 70.2701 24.5548 69.8333 25.0098C69.3021 25.5509 69.0424 26.3626 69.0424 27.4448C69.0424 28.4532 69.3612 29.228 69.9986 29.7445C70.0812 29.8183 70.8957 30.2733 72.442 31.1219C73.8349 31.872 74.8619 32.6468 75.5229 33.4585C76.4555 34.5899 76.9158 35.9918 76.9158 37.6643C76.9158 39.5213 76.42 40.911 75.4285 41.8333C74.5432 42.6573 73.3746 43.0754 71.9345 43.0754C70.2819 43.0754 69.007 42.5835 68.1217 41.5873C67.2364 40.6035 66.7879 39.1647 66.7879 37.2831H68.7237C68.7237 38.6236 69.0188 39.632 69.609 40.2838C70.1993 40.9479 71.0137 41.2676 72.0525 41.2676C72.926 41.2676 73.6461 40.9479 74.2245 40.2961C74.8029 39.6443 75.098 38.7465 75.098 37.5905C75.098 36.3485 74.6376 35.3154 73.7287 34.5161C73.3273 34.1594 72.442 33.606 71.061 32.8559C69.5736 31.9581 68.6883 31.3555 68.3932 31.0481C67.5669 30.1749 67.1538 28.9574 67.1538 27.371C67.1538 25.6739 67.6259 24.4195 68.5821 23.5956C69.3848 22.9069 70.4471 22.5748 71.7574 22.5748C73.0677 22.5748 74.1064 22.9684 74.9327 23.7431C75.9479 24.6901 76.4554 26.1043 76.4554 28.0228V28.0105ZM80.6105 17.1269H82.7353V20.4473H80.6105V17.1269ZM80.7404 23.0299H82.6172V42.5589H80.7404V23.0299ZM92.3674 22.5748C95.9913 22.5748 97.7973 25.9814 97.7973 32.7821C97.7973 36.6436 97.2662 39.386 96.2038 41.0093C95.3185 42.3744 93.9964 43.0631 92.2376 43.0631C90.2427 43.0631 88.838 42.2391 88.0117 40.5789C87.1854 38.9187 86.7723 36.1763 86.7723 32.3639C86.7723 29.7937 87.0202 27.8014 87.5041 26.3995C88.3776 23.8538 89.9948 22.5871 92.3674 22.5871V22.5748ZM92.1077 24.3457C90.644 24.3457 89.6525 25.3542 89.1213 27.3833C88.779 28.65 88.6137 30.5562 88.6137 33.1018C88.6137 35.4138 88.7672 37.1109 89.0623 38.2177C89.5935 40.2469 90.6558 41.2553 92.2376 41.2553C93.8194 41.2553 94.8109 40.2961 95.3775 38.3899C95.7552 37.1232 95.9441 35.2416 95.9441 32.7698C95.9441 29.3756 95.59 27.0882 94.8935 25.883C94.3033 24.8499 93.3708 24.3334 92.0959 24.3334L92.1077 24.3457ZM103.192 23.0422V24.9852C103.652 24.2597 104.242 23.6694 104.939 23.2389C105.635 22.8085 106.403 22.5871 107.229 22.5871C108.35 22.5871 109.283 22.9315 110.026 23.6079C110.9 24.4072 111.325 25.5755 111.325 27.1005V42.5712H109.448V28.3671C109.448 26.7192 109.271 25.637 108.905 25.1205C108.551 24.604 107.878 24.3457 106.91 24.3457C106.025 24.3457 105.21 24.6901 104.467 25.3665C103.617 26.1412 103.192 27.1005 103.192 28.2319V42.5712H101.315V23.0422H103.192ZM114.654 27.949C114.654 26.3011 115.043 24.9975 115.834 24.026C116.613 23.0545 117.782 22.5748 119.328 22.5748C121.134 22.5748 122.362 23.0668 123.046 24.0629C123.578 24.8377 123.837 26.1166 123.837 27.8752V39.8779C123.837 40.4436 123.908 40.8003 124.038 40.9602C124.18 41.1077 124.522 41.1938 125.077 41.1938V42.645C124.817 42.7925 124.463 42.854 124.003 42.854C123.247 42.854 122.751 42.731 122.527 42.4851C122.303 42.2391 122.114 41.7349 121.96 40.9848C121.535 41.5996 121.075 42.067 120.568 42.399C119.895 42.8417 119.08 43.0754 118.148 43.0754C116.696 43.0754 115.669 42.6081 115.067 41.6857C114.453 40.7511 114.146 39.3737 114.146 37.5413C114.146 36.1025 114.382 34.9957 114.854 34.2086C115.315 33.4216 116.058 32.7944 117.085 32.3148L121.394 30.3717C121.689 30.2487 121.866 30.0273 121.901 29.683C121.949 29.3387 121.96 28.9082 121.96 28.3917C121.96 26.8791 121.772 25.8338 121.394 25.2435C121.028 24.6532 120.331 24.358 119.34 24.358C117.428 24.358 116.472 25.5632 116.472 27.9613H114.665L114.654 27.949ZM121.96 32.0811C120.65 32.7083 119.34 33.3355 118.018 33.975C116.684 34.7251 116.023 36.0164 116.023 37.8365C116.023 38.7957 116.141 39.5213 116.377 40.0132C116.755 40.8126 117.451 41.2061 118.443 41.2061C119.694 41.2061 120.591 40.7019 121.146 39.6935C121.701 38.685 121.972 37.2954 121.972 35.5245V32.0934L121.96 32.0811ZM128.311 16.0816H130.188V42.5712H128.311V16.057V16.0816Z" fill="#1C7745"/>
<path d="M209.537 34.6021H194.746C194.982 36.2131 195.679 37.6519 196.67 38.7587C197.922 40.1484 199.633 40.997 201.534 40.997C202.572 40.997 203.576 40.7387 204.485 40.2591C205.394 39.7795 206.208 39.0785 206.857 38.193C207.247 37.6519 207.955 37.5781 208.439 38.0086C208.923 38.439 208.994 39.2384 208.604 39.7672C207.731 40.9478 206.657 41.8824 205.441 42.5219C204.225 43.1614 202.891 43.5057 201.522 43.5057C198.996 43.5057 196.718 42.362 195.065 40.5296C193.412 38.6973 192.397 36.1639 192.386 33.3723V33.3231C192.386 30.5192 193.412 27.9858 195.065 26.1534C196.718 24.3088 199.008 23.1773 201.522 23.1773C204.036 23.1773 206.326 24.321 207.991 26.1534C209.643 27.9981 210.67 30.5315 210.67 33.3354C210.67 34.0241 210.163 34.5898 209.537 34.5898V34.6021ZM173.865 23.1773C176.391 23.1773 178.669 24.321 180.322 26.1534C180.463 26.3133 180.605 26.4732 180.735 26.6453V24.4317C180.735 23.743 181.242 23.1773 181.868 23.1773C182.494 23.1773 183.001 23.743 183.001 24.4317V33.3354V33.5076V42.239C183.001 42.9277 182.494 43.4934 181.868 43.4934C181.242 43.4934 180.735 42.9277 180.735 42.239V40.0254C180.605 40.1976 180.463 40.3575 180.322 40.5173C178.669 42.362 176.379 43.4934 173.865 43.4934C171.646 43.4934 169.615 42.608 168.022 41.1445C167.054 41.8455 166.003 42.3989 164.905 42.7924C163.619 43.2475 162.285 43.4934 160.916 43.4934C157.315 43.4934 154.046 41.8701 151.697 39.2384C149.336 36.6189 147.872 32.991 147.872 28.9819C147.872 20.9637 153.715 14.4705 160.916 14.4705C162.615 14.4705 164.28 14.8394 165.826 15.5404C167.373 16.2414 168.801 17.2744 170.017 18.5902C170.465 19.0699 170.477 19.8692 170.04 20.3611C169.604 20.853 168.895 20.8653 168.447 20.3857C167.443 19.2912 166.263 18.4427 164.976 17.8647C163.701 17.2867 162.309 16.9792 160.904 16.9792C154.943 16.9792 150.115 22.3534 150.115 28.9819C150.115 32.2901 151.319 35.2907 153.278 37.4675C155.226 39.6442 157.929 40.9847 160.904 40.9847C162.037 40.9847 163.158 40.7879 164.197 40.4067C164.976 40.1238 165.732 39.7426 166.44 39.2753C165.354 37.6027 164.705 35.549 164.705 33.3231C164.705 30.5192 165.732 27.9735 167.384 26.1411C169.037 24.2965 171.327 23.165 173.853 23.165L173.865 23.1773ZM178.728 27.9366C177.477 26.547 175.765 25.6984 173.865 25.6984C171.964 25.6984 170.241 26.5593 169.001 27.9366C167.762 29.3263 166.983 31.2325 166.983 33.3477C166.983 35.4629 167.75 37.3691 169.001 38.7587C170.253 40.1484 171.964 40.997 173.865 40.997C175.765 40.997 177.489 40.1361 178.728 38.7587C179.944 37.406 180.711 35.549 180.747 33.5076V33.2001C180.711 31.1464 179.944 29.2894 178.728 27.9489V27.9366ZM192.81 23.3372C190.709 23.743 188.844 24.9482 187.499 26.6576V24.4317C187.499 23.743 186.991 23.1773 186.365 23.1773C185.74 23.1773 185.232 23.743 185.232 24.4317V33.3354V33.3846V42.2513C185.232 42.94 185.74 43.5057 186.365 43.5057C186.991 43.5057 187.499 42.94 187.499 42.2513V33.2247C187.522 31.3923 188.124 29.7198 189.104 28.4162C190.131 27.0635 191.559 26.1165 193.188 25.7968C193.802 25.6861 194.215 25.0343 194.109 24.3456C194.003 23.657 193.424 23.2019 192.81 23.3249V23.3372ZM194.746 32.0933H208.321C208.085 30.4823 207.389 29.0434 206.397 27.9366C205.158 26.547 203.434 25.6984 201.534 25.6984C199.633 25.6984 197.91 26.5593 196.67 27.9366C195.679 29.0434 194.982 30.4823 194.746 32.0933Z" fill="#D82B38"/>
<path d="M226.511 42.5465C226.511 39.5089 226.983 37.2953 227.94 35.9056C228.317 35.3399 229.403 34.1101 231.174 32.1917C233.251 29.9289 234.562 28.2072 235.116 27.0143C235.671 25.8214 235.943 24.4932 235.943 23.0052C235.943 21.5171 235.612 20.2381 234.963 19.365C234.302 18.4918 233.417 18.0614 232.295 18.0614C231.174 18.0614 230.253 18.5041 229.663 19.4019C228.99 20.4103 228.648 21.9721 228.648 24.0628H226.712C226.712 21.4064 227.279 19.3896 228.4 18.0245C229.391 16.7947 230.737 16.1921 232.437 16.1921C234.137 16.1921 235.376 16.8439 236.427 18.1475C237.477 19.4511 237.997 21.1728 237.997 23.288C237.997 24.8129 237.678 26.2887 237.052 27.7029C236.568 28.7852 235.789 30.0026 234.715 31.3431C234.255 31.9334 233.334 32.9664 231.977 34.4545C231.174 35.3276 230.383 36.1885 229.616 37.037C228.99 37.9102 228.671 39.0047 228.671 40.3206L238.008 40.3943V42.5465H226.547H226.511ZM248.526 16.1921H250.533V33.569H252.563V35.4383H250.533V42.5342H248.408V35.4383H240.405V33.36L248.538 16.1921H248.526ZM248.396 20.3242L248.325 20.398L242.258 33.569H248.384V20.3242H248.396Z" fill="#1C7745"/>
</svg>
